<?xml version="1.0" standalone="no"?>
<!DOCTYPE svg PUBLIC "-//W3C//DTD SVG 20010904//EN"
 "http://www.w3.org/TR/2001/REC-SVG-20010904/DTD/svg10.dtd">
<svg version="1.0" xmlns="http://www.w3.org/2000/svg"
 width="200.000000pt" height="56.000000pt" viewBox="0 0 200.000000 56.000000"
 preserveAspectRatio="xMidYMid meet">

<g transform="translate(0.000000,56.000000) scale(0.100000,-0.100000)"
fill="#000000" stroke="none">
<path d="M200 500 c-110 -37 -176 -154 -151 -266 25 -110 118 -184 230 -184
55 0 131 26 145 49 5 7 43 10 104 10 114 -2 162 14 186 60 9 16 16 32 16 35 0
2 -23 -5 -50 -15 -41 -16 -76 -19 -183 -18 -144 0 -177 -7 -202 -45 -17 -25
-18 -25 -53 -10 -80 33 -116 90 -110 175 7 100 73 159 180 159 92 0 108 38 24
59 -59 15 -71 14 -136 -9z"/>
<path d="M715 452 c-29 -11 -75 -14 -170 -13 -144 1 -194 -11 -214 -55 -18
-40 -13 -46 22 -27 27 15 53 18 169 15 157 -3 208 10 233 59 24 45 23 45 -40
21z"/>
<path d="M1460 390 c-13 -8 -12 -10 3 -10 15 0 17 -11 17 -85 0 -69 -3 -86
-17 -94 -15 -9 -12 -10 15 -11 17 0 32 5 32 10 0 6 -4 10 -10 10 -6 0 -10 38
-10 95 0 52 -3 95 -7 95 -5 0 -15 -5 -23 -10z"/>
<path d="M918 368 c7 -7 12 -41 12 -85 0 -58 -3 -74 -17 -82 -15 -9 -12 -10
17 -11 22 0 30 3 22 9 -9 5 -12 28 -10 77 l3 69 49 -77 c64 -103 76 -102 76 5
0 51 5 88 12 95 9 9 3 12 -27 12 -33 0 -36 -2 -23 -12 11 -9 17 -34 20 -82 5
-78 3 -78 -65 33 -27 45 -43 61 -59 61 -17 0 -19 -3 -10 -12z"/>
<path d="M1247 334 c-10 -13 -13 -24 -7 -24 5 0 10 -21 10 -49 0 -57 17 -78
46 -57 19 14 19 14 -1 13 -17 -2 -20 5 -23 44 -3 41 0 47 20 54 l23 8 -22 4
c-12 2 -23 10 -25 18 -2 9 -9 5 -21 -11z"/>
<path d="M660 312 c-27 -12 -71 -16 -190 -16 -169 -1 -198 -9 -222 -62 -15
-33 -7 -37 33 -17 28 15 57 17 177 15 123 -3 148 0 186 17 41 18 66 45 66 70
0 14 -7 13 -50 -7z"/>
<path d="M1168 318 c31 -16 27 -28 -9 -28 -25 0 -30 3 -25 18 4 12 0 10 -14
-7 -27 -31 -25 -57 5 -86 25 -26 38 -29 70 -15 17 7 16 9 -10 9 -37 2 -50 10
-59 39 -7 20 -4 22 34 22 28 0 43 5 47 16 7 19 -21 44 -46 43 -11 0 -8 -4 7
-11z"/>
<path d="M1355 305 c-27 -26 -31 -46 -15 -75 16 -29 45 -41 72 -31 23 10 23
10 -4 10 -36 1 -61 39 -52 76 6 24 10 26 40 20 34 -6 48 8 18 19 -26 10 -34 7
-59 -19z"/>
<path d="M1550 303 c-22 -29 -22 -72 1 -100 18 -20 76 -17 89 6 18 35 12 88
-12 105 -32 23 -54 20 -78 -11z m74 -9 c9 -22 7 -67 -3 -82 -13 -21 -43 -10
-60 20 -12 21 -13 31 -3 52 13 30 56 36 66 10z"/>
<path d="M1688 318 c7 -7 12 -33 12 -58 0 -25 -5 -51 -12 -58 -9 -9 -6 -12 13
-12 25 0 26 2 21 55 -4 51 -3 54 21 60 14 4 31 4 36 0 15 -9 14 -88 -1 -103
-9 -9 -6 -12 15 -12 23 0 26 3 22 28 -2 15 -7 44 -10 64 -7 45 -15 51 -51 38
-19 -8 -30 -8 -38 0 -5 5 -17 10 -25 10 -12 0 -12 -3 -3 -12z"/>
<path d="M1862 307 c-27 -29 -28 -71 -2 -97 22 -22 34 -23 65 -10 17 7 15 9
-12 9 -21 1 -36 8 -43 20 -17 33 -11 41 30 41 47 0 65 24 35 46 -27 20 -49 17
-73 -9z m58 -2 c11 -13 7 -15 -25 -15 -32 0 -36 2 -25 15 7 8 18 15 25 15 7 0
18 -7 25 -15z"/>
</g>
</svg>
